<svg height="512" viewBox="0 0 64 64" width="512" xmlns="http://www.w3.org/2000/svg"><path d="m60 15h-56a3 3 0 0 0 -3 3v28a3 3 0 0 0 3 3h56a3 3 0 0 0 3-3v-28a3 3 0 0 0 -3-3zm-57 3a1 1 0 0 1 1-1h56a1 1 0 0 1 1 1v10h-16v-5a1 1 0 0 0 -1-1h-24a1 1 0 0 0 -1 1v5h-16zm40 10h-22v-4h22zm-34 19v-14h2v7a1 1 0 0 0 1 1h1v6zm4-8v-6h2v6zm2 8v-6h1a1 1 0 0 0 1-1v-7h2v7a1 1 0 0 0 1 1h1v6zm6-8v-6h2v6zm2 8v-6h1a1 1 0 0 0 1-1v-7h2v14zm6 0v-14h2v7a1 1 0 0 0 1 1h1v6zm4-8v-6h2v6zm2 8v-6h1a1 1 0 0 0 1-1v-7h2v7a1 1 0 0 0 1 1h1v6zm6-8v-6h2v6zm2 8v-6h1a1 1 0 0 0 1-1v-7h2v7a1 1 0 0 0 1 1h1v6zm6-8v-6h2v6zm2 8v-6h1a1 1 0 0 0 1-1v-7h2v14zm10-1a1 1 0 0 1 -1 1h-3v-15a1 1 0 0 0 -1-1h-48a1 1 0 0 0 -1 1v15h-3a1 1 0 0 1 -1-1v-16h58z"/><path d="m57 25a3 3 0 1 0 -3-3 3 3 0 0 0 3 3zm0-4a1 1 0 1 1 -1 1 1 1 0 0 1 1-1z"/><path d="m49 25a3 3 0 1 0 -3-3 3 3 0 0 0 3 3zm0-4a1 1 0 1 1 -1 1 1 1 0 0 1 1-1z"/><path d="m12 18h-7a1 1 0 0 0 0 2h7a1 1 0 0 0 0-2z"/><path d="m7 21h-2a1 1 0 0 0 0 2h2a1 1 0 0 0 0-2z"/><path d="m59 44a1 1 0 0 0 1-1v-10a1 1 0 0 0 -2 0v10a1 1 0 0 0 1 1z"/><path d="m5 35a1 1 0 0 0 -1 1v4a1 1 0 0 0 2 0v-4a1 1 0 0 0 -1-1z"/><path d="m26 21h12a1 1 0 0 0 0-2h-12a1 1 0 0 0 0 2z"/></svg>