<svg id="Capa_1" enable-background="new 0 0 565.648 565.648" height="512" viewBox="0 0 565.648 565.648" width="512" xmlns="http://www.w3.org/2000/svg"><path d="m282.824 0c-155.947 0-282.824 126.877-282.824 282.824s126.877 282.824 282.824 282.824 282.824-126.877 282.824-282.824-126.877-282.824-282.824-282.824zm0 494.942c-116.969 0-212.118-95.15-212.118-212.118s95.15-212.118 212.118-212.118 212.118 95.149 212.118 212.118-95.149 212.118-212.118 212.118z"/><path d="m382.818 182.831c55.225 55.225 55.225 144.762 0 199.987s-144.762 55.225-199.987 0-55.225-144.762 0-199.987 144.762-55.225 199.987 0"/></svg>